Coordinates
version=1
nRows=21
nColumns=28
inDegrees=yes

Units are S.I. units (second, meters, Newtons, ...)
Angles are in degrees.

endheader
time	pelvis_tilt	pelvis_list	pelvis_rotation	pelvis_tx	pelvis_ty	pelvis_tz	hip_flexion_r	hip_adduction_r	hip_rotation_r	knee_angle_r	ankle_angle_r	subtalar_angle_r	mtp_angle_r	hip_flexion_l	hip_adduction_l	hip_rotation_l	knee_angle_l	socket_flexion	socket_adduction	socket_rotation	socket_tx	socket_ty	socket_tz	foot_flex	lumbar_extension	lumbar_bending	lumbar_rotation
      0.00000000	     -0.92234884	     -8.16092902	    -12.22027845	     -0.87837209	      0.98172846	      0.31948600	    -22.38292540	      8.21558849	     11.00719004	     -7.75382556	      9.66166880	    -10.03765961	     23.57973666	     27.46759723	    -14.04853019	      8.43982450	     -5.25902909	     -1.30776989	      0.00000000	      0.00000000	      0.00000000	     -0.00074692	      0.00000000	      2.34573773	    -10.92994001	      5.47649171	     18.22965162
      0.00416667	     -1.00038606	     -8.25342846	    -12.19776096	     -0.87332669	      0.98101107	      0.31906562	    -22.41201894	      8.28285448	     11.06901492	     -8.10872155	      9.56095928	    -10.06027199	     23.59640879	     27.33653326	    -14.06246762	      8.46728304	     -5.22236452	     -1.29343826	      0.00000000	      0.00000000	      0.00000000	     -0.00108940	      0.00000000	      2.09251888	    -10.84583495	      5.58376067	     18.26026972
      0.00833333	     -1.08569770	     -8.36717032	    -12.21959477	     -0.86799719	      0.98024377	      0.31864913	    -22.41793630	      8.35054556	     11.07431279	     -8.53357520	      9.42472822	    -10.10831216	     23.60967918	     27.17234500	    -14.11326823	      8.42748983	     -5.16497528	     -1.27233213	      0.00000000	      0.00000000	      0.00000000	     -0.00157050	      0.00000000	      1.83774566	    -10.74685191	      5.72867754	     18.28652403
      0.01250000	     -1.15875409	     -8.41172696	    -12.14394756	     -0.86229308	      0.97946447	      0.31816094	    -22.52632390	      8.37452535	     11.13673909	     -8.77560212	      9.37514408	    -10.10960444	     23.61300359	     27.02983406	    -14.04150955	      8.41457564	     -5.18419855	     -1.27549253	      0.00000000	      0.00000000	      0.00000000	     -0.00196537	      0.00000000	      1.76322928	    -10.59313538	      5.79203266	     18.29304659
      0.01666667	     -1.25661651	     -8.54472913	    -12.23421896	     -0.85675709	      0.97869873	      0.31781184	    -22.41967135	      8.44953494	     11.10810607	     -9.43134095	      9.12502987	    -10.19170744	     23.61174059	     26.81384462	    -14.14828991	      8.37101910	     -5.04454518	     -1.23661131	      0.00000000	      0.00000000	      0.00000000	     -0.00259642	      0.00000000	      1.29208162	    -10.52998131	      5.95914050	     18.30756348
      0.02083333	     -1.33727207	     -8.59665207	    -12.17213610	     -0.85074681	      0.97788961	      0.31728663	    -22.51367152	      8.47110937	     11.16796220	     -9.71229733	      9.05755228	    -10.19720442	     23.61636005	     26.64816997	    -14.08620818	      8.36632939	     -5.05118389	     -1.22700922	      0.00000000	      0.00000000	      0.00000000	     -0.00312818	      0.00000000	      1.21619433	    -10.36348480	      6.03075566	     18.31713533
      0.02500000	     -1.44798004	     -8.72059685	    -12.27194794	     -0.84498658	      0.97717612	      0.31691533	    -22.35871443	      8.53862967	     11.15207987	    -10.44424541	      8.75386181	    -10.28146687	     23.61668606	     26.40572445	    -14.18717726	      8.35795246	     -4.86435374	     -1.14745953	      0.00000000	      0.00000000	      0.00000000	     -0.00379781	      0.00000000	      0.75793600	    -10.27937595	      6.18036393	     18.33388321
      0.02916667	     -1.79414379	     -8.80812742	    -12.54945741	     -0.83872552	      0.97620932	      0.31688676	    -22.01843846	      8.56510173	     11.35627947	    -11.10614088	      8.49442298	    -10.39617315	     23.98874123	     26.10655215	    -14.40257701	      8.16795270	     -4.01898901	     -0.59496562	      0.00000000	      0.00000000	      0.00000000	     -0.00463501	      0.00000000	      0.57146570	     -9.83769776	      6.33384585	     18.68430661
      0.03333333	     -1.84479185	     -8.84805923	    -12.52553381	     -0.83258716	      0.97555488	      0.31641751	    -22.03244962	      8.56717471	     11.39487141	    -11.59909420	      8.27701181	    -10.43694859	     23.99255339	     25.86797606	    -14.34690980	      8.21718973	     -4.00893779	     -0.60486325	      0.00000000	      0.00000000	      0.00000000	     -0.00529481	      0.00000000	      0.28227298	     -9.73338199	      6.36877502	     18.66000559
      0.03750000	     -1.91582012	     -8.90854337	    -12.52898209	     -0.82643408	      0.97490646	      0.31591705	    -21.95827151	      8.58445291	     11.35964581	    -12.21879770	      7.95808771	    -10.51843952	     23.99933547	     25.61069943	    -14.32413377	      8.21383748	     -3.92288735	     -0.56196411	      0.00000000	      0.00000000	      0.00000000	     -0.00603861	      0.00000000	     -0.01195226	     -9.63322616	      6.46077480	     18.63311745
      0.04166667	     -1.98281812	     -8.93619387	    -12.43474747	     -0.81989668	      0.97422811	      0.31535048	    -22.04032763	      8.58925756	     11.44219651	    -12.54827697	      7.85586474	    -10.52378949	     24.00183692	     25.39170454	    -14.22100603	      8.24978877	     -3.94950313	     -0.56354055	      0.00000000	      0.00000000	      0.00000000	     -0.00685112	      0.00000000	     -0.09211431	     -9.43164969	      6.51637097	     18.62708276
      0.04583333	     -2.07325008	     -8.97028696	    -12.51115916	     -0.81390339	      0.97371980	      0.31491850	    -21.78468927	      8.57658026	     11.34917184	    -13.43528684	      7.32063958	    -10.65837512	     23.99446462	     25.11195715	    -14.21803978	      8.28312416	     -3.76921416	     -0.44279978	      0.00000000	      0.00000000	      0.00000000	     -0.00759864	      0.00000000	     -0.53492211	     -9.34905463	      6.55972679	     18.56309611
      0.05000000	     -2.13859554	     -8.98538270	    -12.40577738	     -0.80723922	      0.97313832	      0.31431484	    -21.85393792	      8.57719789	     11.44173995	    -13.77780251	      7.20735234	    -10.66354396	     23.99804631	     24.87727303	    -14.09683479	      8.32574834	     -3.79603502	     -0.44080571	      0.00000000	      0.00000000	      0.00000000	     -0.00845007	      0.00000000	     -0.59587983	     -9.12490685	      6.60825947	     18.55468033
      0.05416667	     -2.42947574	     -8.83099337	    -12.56092934	     -0.80083258	      0.97248723	      0.31421238	    -21.29627125	      8.40693882	     11.24161105	    -14.77501541	      6.34997535	    -10.97308252	     24.30989778	     24.59485387	    -14.01284499	      8.24719629	     -3.10020515	      0.01738909	      0.00000000	      0.00000000	      0.00000000	     -0.00913894	      0.00000000	     -0.90831812	     -8.69431495	      6.46506161	     18.47917565
      0.05833333	     -2.44842307	     -8.73987986	    -12.63077754	     -0.79429666	      0.97220185	      0.31385544	    -21.18727212	      8.22413051	     11.19134922	    -15.43332928	      5.45926479	    -11.24716268	     26.72083702	     24.07287369	    -13.88922435	      8.11165409	     -2.58026965	      0.36499455	      0.00000000	      0.00000000	      0.00000000	     -0.00996617	      0.00000000	     -1.13586021	     -8.56282149	      6.35819368	     18.53556226
      0.06250000	     -2.46766618	     -8.69270031	    -12.54390825	     -0.78801889	      0.97194641	      0.31325931	    -21.08408642	      8.17101984	     11.25560418	    -16.09930458	      5.09193095	    -11.27245187	     26.68623729	     23.82224097	    -13.72338823	      8.23041367	     -2.64575212	      0.35370133	      0.00000000	      0.00000000	      0.00000000	     -0.01068532	      0.00000000	     -1.35607542	     -8.46655928	      6.28420844	     18.45978441
      0.06666667	     -2.52646694	     -8.53789923	    -12.48608613	     -0.78156695	      0.97167473	      0.31269615	    -20.80802261	      7.98940217	     10.94669705	    -16.94476683	      4.42654761	    -11.41201246	     26.67732836	     23.58630424	    -13.46034553	      8.14098308	     -2.66910051	      0.39834513	      0.00000000	      0.00000000	      0.00000000	     -0.01137858	      0.00000000	     -1.52752635	     -8.26201804	      6.14176357	     18.28465141
      0.07083333	     -2.58587123	     -8.36692696	    -12.39141524	     -0.77511673	      0.97147023	      0.31208641	    -20.54060872	      7.81178559	     10.74617869	    -17.75840824	      3.83796510	    -11.48565932	     26.73250998	     23.35896386	    -13.17019964	      8.12900732	     -2.67669356	      0.44149327	      0.00000000	      0.00000000	      0.00000000	     -0.01201497	      0.00000000	     -1.69966624	     -8.05901695	      5.98291709	     18.11238164
      0.07500000	     -2.59373186	     -8.26326685	    -12.27289581	     -0.76885373	      0.97146146	      0.31150424	    -20.38846413	      7.73212667	     10.85724562	    -18.47298764	      3.45564298	    -11.47996350	     26.73809505	     23.11453248	    -12.94900519	      8.29202762	     -2.75039812	      0.49272589	      0.00000000	      0.00000000	      0.00000000	     -0.01259987	      0.00000000	     -1.84207870	     -7.94233790	      5.80872721	     18.01505418
      0.07916667	     -2.60720254	     -8.04672317	    -12.19287769	     -0.76249049	      0.97144808	      0.31087677	    -20.03158698	      7.48763482	     10.51968701	    -19.47877439	      2.68540784	    -11.57200640	     26.74479391	     22.84977094	    -12.61523336	      8.17060762	     -2.79024432	      0.54148702	      0.00000000	      0.00000000	      0.00000000	     -0.01319252	      0.00000000	     -2.00630097	     -7.80342709	      5.59652529	     17.81156033
      0.08333333	     -2.70768666	     -7.56236811	    -11.97923828	     -0.75570258	      0.97136534	      0.31025919	    -19.58718115	      7.01667484	      9.89725099	    -20.35059596	      1.89108949	    -11.52467089	     27.15416223	     22.70466331	    -11.97779258	      8.06374618	     -2.79433669	      0.63071653	      0.00000000	      0.00000000	      0.00000000	     -0.01337730	      0.00000000	     -2.06085166	     -7.39668201	      5.06188870	     17.45996119
